<svg id="logo_secondary" xmlns="http://www.w3.org/2000/svg" width="228.713" height="107" viewBox="0 0 228.713 107">
  <g id="Group_4" data-name="Group 4" transform="translate(18.982 86.689)">
    <g id="Group_3" data-name="Group 3">
      <path id="Path_5" data-name="Path 5" d="M177.327,385.936a3.161,3.161,0,0,0,2.292.973c.843,0,1.254-.4,1.254-.811,0-.541-.627-.724-1.46-.919-1.179-.271-2.692-.595-2.692-2.206,0-1.2,1.038-2.173,2.735-2.173a4.011,4.011,0,0,1,2.811,1.005l-.854,1.124a3.077,3.077,0,0,0-2.065-.789c-.692,0-1.059.3-1.059.736,0,.486.605.638,1.438.832,1.189.27,2.7.627,2.7,2.227,0,1.319-.941,2.314-2.887,2.314a4.156,4.156,0,0,1-3.06-1.146Z" transform="translate(-162.345 -380.79)" fill="#191e72"/>
      <path id="Path_6" data-name="Path 6" d="M205.2,384.487a3.65,3.65,0,0,1,3.784-3.73,3.327,3.327,0,0,1,3.07,1.762l-1.319.648a1.975,1.975,0,0,0-1.752-1.048,2.373,2.373,0,0,0,0,4.735,1.955,1.955,0,0,0,1.752-1.048l1.319.638a3.347,3.347,0,0,1-3.07,1.773A3.65,3.65,0,0,1,205.2,384.487Z" transform="translate(-183.878 -380.757)" fill="#191e72"/>
      <path id="Path_7" data-name="Path 7" d="M240.435,387.2h-3.222l-.454,1.243h-1.686l2.789-7.211h1.925l2.779,7.211h-1.676Zm-2.811-1.33h2.389l-1.189-3.308Z" transform="translate(-206.287 -381.113)" fill="#191e72"/>
      <path id="Path_8" data-name="Path 8" d="M272.541,385.859h-1.125v2.584h-1.535v-7.211h3.373a2.246,2.246,0,0,1,2.422,2.325A2.07,2.07,0,0,1,274.1,385.7l1.622,2.746h-1.762Zm.486-3.308h-1.611v1.989h1.611a1,1,0,1,0,0-1.989Z" transform="translate(-232.393 -381.113)" fill="#191e72"/>
      <path id="Path_9" data-name="Path 9" d="M299.846,381.232h3.794a1.865,1.865,0,0,1,2.076,1.838,1.6,1.6,0,0,1-1.243,1.654,1.748,1.748,0,0,1,1.384,1.773,1.9,1.9,0,0,1-2.1,1.946h-3.913Zm3.46,2.9a.8.8,0,1,0,0-1.589h-1.925v1.589Zm.054,3.006a.828.828,0,0,0,.93-.854.842.842,0,0,0-.93-.843h-1.978v1.7Z" transform="translate(-254.867 -381.113)" fill="#191e72"/>
      <path id="Path_10" data-name="Path 10" d="M333.053,380.757a3.73,3.73,0,1,1-3.762,3.73A3.623,3.623,0,0,1,333.053,380.757Zm0,1.362a2.374,2.374,0,1,0,2.195,2.367A2.181,2.181,0,0,0,333.053,382.119Z" transform="translate(-276.95 -380.757)" fill="#191e72"/>
      <path id="Path_11" data-name="Path 11" d="M368.575,385.859H367.45v2.584h-1.535v-7.211h3.373a2.246,2.246,0,0,1,2.422,2.325,2.07,2.07,0,0,1-1.578,2.141l1.622,2.746h-1.762Zm.486-3.308H367.45v1.989h1.611a1,1,0,1,0,0-1.989Z" transform="translate(-304.418 -381.113)" fill="#191e72"/>
      <path id="Path_12" data-name="Path 12" d="M398.258,380.757a3.73,3.73,0,1,1-3.762,3.73A3.623,3.623,0,0,1,398.258,380.757Zm0,1.362a2.374,2.374,0,1,0,2.195,2.367A2.181,2.181,0,0,0,398.258,382.119Z" transform="translate(-325.854 -380.757)" fill="#191e72"/>
      <path id="Path_13" data-name="Path 13" d="M431.12,381.232h1.557v4.281a1.665,1.665,0,1,0,3.33,0v-4.281h1.557v4.325c0,1.795-1.027,3.016-3.211,3.016-2.206,0-3.233-1.233-3.233-3.006Z" transform="translate(-353.322 -381.113)" fill="#191e72"/>
      <path id="Path_14" data-name="Path 14" d="M467.214,380.757a3.378,3.378,0,0,1,2.984,1.578l-1.275.692a2.047,2.047,0,0,0-1.708-.908,2.37,2.37,0,0,0,0,4.735,2.436,2.436,0,0,0,1.557-.551v-.876h-1.924v-1.319h3.438v2.757a4,4,0,0,1-3.07,1.363,3.737,3.737,0,1,1,0-7.471Z" transform="translate(-377.514 -380.757)" fill="#191e72"/>
      <path id="Path_15" data-name="Path 15" d="M502.994,385.416h-3.406v3.027h-1.535v-7.211h1.535v2.833h3.406v-2.833h1.546v7.211h-1.546Z" transform="translate(-403.522 -381.113)" fill="#191e72"/>
      <path id="Path_16" data-name="Path 16" d="M124.869,432.162h-3.406v3.027h-1.535v-7.211h1.535v2.833h3.406v-2.833h1.546v7.211h-1.546Z" transform="translate(-119.929 -416.173)" fill="#191e72"/>
      <path id="Path_17" data-name="Path 17" d="M153.7,427.978h5.1V429.3h-3.568v1.567h3.492v1.319h-3.492v1.676H158.8v1.33h-5.1Z" transform="translate(-145.256 -416.173)" fill="#191e72"/>
      <path id="Path_18" data-name="Path 18" d="M183.36,433.946h-3.222l-.454,1.243H178l2.789-7.211h1.925l2.778,7.211h-1.676Zm-2.811-1.33h2.389l-1.189-3.308Z" transform="translate(-163.481 -416.173)" fill="#191e72"/>
      <path id="Path_19" data-name="Path 19" d="M212.806,427.978h1.535v5.859h3.049v1.351h-4.584Z" transform="translate(-189.587 -416.173)" fill="#191e72"/>
      <path id="Path_20" data-name="Path 20" d="M233.592,429.33h-2.108v-1.352h5.752v1.352h-2.1v5.859h-1.546Z" transform="translate(-203.595 -416.173)" fill="#191e72"/>
      <path id="Path_21" data-name="Path 21" d="M265.526,432.162H262.12v3.027h-1.535v-7.211h1.535v2.833h3.406v-2.833h1.546v7.211h-1.546Z" transform="translate(-225.421 -416.173)" fill="#191e72"/>
      <path id="Path_22" data-name="Path 22" d="M309.12,430.346v4.843h-1.535v-7.211h1.578l3.341,4.67v-4.67h1.535v7.211h-1.481Z" transform="translate(-260.671 -416.173)" fill="#191e72"/>
      <path id="Path_23" data-name="Path 23" d="M341.269,427.978h5.1V429.3H342.8v1.567H346.3v1.319H342.8v1.676h3.568v1.33h-5.1Z" transform="translate(-285.934 -416.173)" fill="#191e72"/>
      <path id="Path_24" data-name="Path 24" d="M368.973,429.33h-2.108v-1.352h5.752v1.352h-2.1v5.859h-1.546Z" transform="translate(-305.131 -416.173)" fill="#191e72"/>
      <path id="Path_25" data-name="Path 25" d="M398.1,430.238l-1.254,4.951h-1.632l-2.065-7.211h1.719l1.265,5.211,1.373-5.211h1.2l1.362,5.211,1.254-5.211h1.73L401,435.189H399.37Z" transform="translate(-324.847 -416.173)" fill="#191e72"/>
      <path id="Path_26" data-name="Path 26" d="M439.335,427.5a3.73,3.73,0,1,1-3.762,3.73A3.623,3.623,0,0,1,439.335,427.5Zm0,1.362a2.374,2.374,0,1,0,2.195,2.368A2.181,2.181,0,0,0,439.335,428.864Z" transform="translate(-356.662 -415.816)" fill="#191e72"/>
      <path id="Path_27" data-name="Path 27" d="M474.856,432.605h-1.125v2.584H472.2v-7.211h3.373a2.245,2.245,0,0,1,2.422,2.324,2.069,2.069,0,0,1-1.578,2.141l1.621,2.746h-1.762Zm.486-3.308h-1.611v1.989h1.611a1,1,0,1,0,0-1.989Z" transform="translate(-384.129 -416.173)" fill="#191e72"/>
      <path id="Path_28" data-name="Path 28" d="M504.258,432.3l-.562.67v2.216h-1.535v-7.211H503.7V431.2l2.552-3.221h1.892l-2.865,3.384,3.06,3.827h-1.892Z" transform="translate(-406.603 -416.173)" fill="#191e72"/>
    </g>
  </g>
  <g id="Group_6" data-name="Group 6">
    <path id="Path_29" data-name="Path 29" d="M657.75,76.584V34H574V51h8.75V42.75H649V79.47L656.8,90l-74.053,36.83V119.25H574V141l96.212-47.614Z" transform="translate(-441.499 -34)" fill="#49c6b9"/>
    <g id="Group_5" data-name="Group 5" transform="translate(0 25.51)">
      <path id="Path_30" data-name="Path 30" d="M44,178.58l4.808-6.629a20.873,20.873,0,0,0,15.37,6.774c6.993,0,9.688-3.424,9.688-6.7,0-10.2-28.263-3.861-28.263-21.707,0-8.086,6.993-14.277,17.7-14.277,7.5,0,13.694,2.477,18.138,6.847l-4.808,6.337A19.8,19.8,0,0,0,62.5,143.617c-4.953,0-8.158,2.477-8.158,6.046,0,9.105,28.263,3.5,28.263,21.561,0,8.085-5.755,15.078-18.793,15.078C54.853,186.3,48.371,183.1,44,178.58Z" transform="translate(-44 -136.041)" fill="#191e72"/>
      <path id="Path_31" data-name="Path 31" d="M263.75,187.5v-21H238.5v21H230V139h8.5v19.75h25.25V139h8.5v48.5Z" transform="translate(-183.5 -138.26)" fill="#191e72"/>
      <path id="Path_32" data-name="Path 32" d="M474.789,187.5,449.75,153.066V187.5H441V139h8.47l24.78,33.594V139H483v48.5Z" transform="translate(-341.75 -138.26)" fill="#191e72"/>
    </g>
  </g>
</svg>
